<svg width="28" height="34" viewBox="0 0 28 34" fill="none" xmlns="http://www.w3.org/2000/svg">
<path d="M14.676 19.886L12.562 21.062L12.478 20.726H17.294V22H10.672V20.726C11.428 20.3153 12.1047 19.97 12.702 19.69C13.2993 19.4007 13.8033 19.1393 14.214 18.906C14.634 18.6727 14.9513 18.4347 15.166 18.192C15.39 17.9493 15.502 17.6787 15.502 17.38C15.502 17.1373 15.4413 16.9273 15.32 16.75C15.1987 16.5727 15.0073 16.4373 14.746 16.344C14.494 16.2413 14.1673 16.19 13.766 16.19C13.2433 16.19 12.814 16.3113 12.478 16.554C12.142 16.7873 11.9647 17.1047 11.946 17.506H10.476C10.4387 16.9927 10.5507 16.54 10.812 16.148C11.0827 15.756 11.47 15.448 11.974 15.224C12.4873 14.9907 13.0753 14.874 13.738 14.874C14.2513 14.874 14.7133 14.93 15.124 15.042C15.5347 15.154 15.8847 15.3173 16.174 15.532C16.4727 15.7373 16.7013 15.9847 16.86 16.274C17.0187 16.554 17.098 16.8667 17.098 17.212C17.098 17.492 17.0467 17.7487 16.944 17.982C16.8507 18.206 16.7013 18.4253 16.496 18.64C16.3 18.8453 16.048 19.0507 15.74 19.256C15.4413 19.452 15.0867 19.662 14.676 19.886Z" fill="#FD9575"/>
</svg>
