<svg width="29" height="34" viewBox="0 0 29 34" fill="none" xmlns="http://www.w3.org/2000/svg">
<path d="M14.2 19.396L14.214 19.326C14.69 19.3447 15.1287 19.396 15.53 19.48C15.9313 19.5547 16.2767 19.676 16.566 19.844C16.8647 20.012 17.0933 20.2407 17.252 20.53C17.42 20.8193 17.504 21.1833 17.504 21.622C17.504 22.126 17.3547 22.5787 17.056 22.98C16.7667 23.3813 16.356 23.6987 15.824 23.932C15.292 24.1653 14.6667 24.282 13.948 24.282C13.2573 24.282 12.646 24.156 12.114 23.904C11.582 23.6613 11.1713 23.33 10.882 22.91C10.602 22.49 10.4807 22.014 10.518 21.482H11.988C11.9973 21.762 12.0767 22.0093 12.226 22.224C12.3847 22.4387 12.6087 22.6067 12.898 22.728C13.1967 22.8493 13.5467 22.91 13.948 22.91C14.564 22.91 15.0353 22.7793 15.362 22.518C15.698 22.266 15.866 21.9067 15.866 21.44C15.866 20.9733 15.6747 20.628 15.292 20.404C14.9187 20.1707 14.3913 20.054 13.71 20.054H12.66V18.794H13.71C14.1767 18.794 14.5593 18.752 14.858 18.668C15.1567 18.5747 15.376 18.4347 15.516 18.248C15.656 18.052 15.726 17.814 15.726 17.534C15.726 17.1327 15.5813 16.8153 15.292 16.582C15.012 16.3487 14.564 16.232 13.948 16.232C13.3787 16.232 12.9307 16.3533 12.604 16.596C12.2773 16.8387 12.1093 17.1607 12.1 17.562H10.616C10.588 17.1513 10.6533 16.7827 10.812 16.456C10.98 16.1293 11.218 15.8493 11.526 15.616C11.8433 15.3733 12.2073 15.1867 12.618 15.056C13.038 14.9253 13.4813 14.86 13.948 14.86C14.648 14.86 15.25 14.9673 15.754 15.182C16.2673 15.3873 16.6593 15.6767 16.93 16.05C17.2007 16.4233 17.336 16.8527 17.336 17.338C17.336 17.7393 17.2567 18.0707 17.098 18.332C16.9487 18.5933 16.7293 18.8033 16.44 18.962C16.16 19.1113 15.8287 19.2187 15.446 19.284C15.0727 19.3493 14.6573 19.3867 14.2 19.396Z" fill="#FD9575"/>
</svg>
