<svg width="29" height="34" viewBox="0 0 29 34" fill="none" xmlns="http://www.w3.org/2000/svg">
<path d="M15.082 18.318C15.5207 18.318 15.9267 18.3833 16.3 18.514C16.6733 18.6353 17 18.822 17.28 19.074C17.56 19.326 17.7747 19.634 17.924 19.998C18.0827 20.362 18.162 20.782 18.162 21.258C18.162 21.8927 18.008 22.434 17.7 22.882C17.4013 23.33 16.9813 23.6707 16.44 23.904C15.908 24.1467 15.2967 24.268 14.606 24.268C14.102 24.268 13.626 24.2027 13.178 24.072C12.73 23.9413 12.3333 23.7547 11.988 23.512C11.652 23.2787 11.3767 22.9847 11.162 22.63C10.9567 22.2847 10.8447 21.8927 10.826 21.454H12.324C12.3613 21.7713 12.4827 22.0373 12.688 22.252C12.8933 22.476 13.1547 22.644 13.472 22.756C13.7987 22.868 14.158 22.924 14.55 22.924C14.8207 22.924 15.0773 22.8867 15.32 22.812C15.5627 22.7467 15.782 22.644 15.978 22.504C16.174 22.3733 16.328 22.2007 16.44 21.986C16.552 21.7713 16.608 21.524 16.608 21.244C16.608 20.964 16.552 20.7167 16.44 20.502C16.3373 20.2873 16.1927 20.11 16.006 19.97C15.8287 19.83 15.6187 19.7227 15.376 19.648C15.1333 19.5733 14.8767 19.536 14.606 19.536C14.3353 19.536 14.0647 19.5687 13.794 19.634C13.5233 19.69 13.2713 19.788 13.038 19.928C12.8047 20.068 12.6133 20.2687 12.464 20.53L11.092 20.264L11.456 15H17.294V16.372H12.912L12.66 19.956L12.492 19.858C12.6133 19.5127 12.8047 19.228 13.066 19.004C13.3273 18.78 13.6307 18.612 13.976 18.5C14.3307 18.3787 14.6993 18.318 15.082 18.318Z" fill="#FD9575"/>
</svg>
