<svg width="44" height="44" viewBox="0 0 44 44" fill="none" xmlns="http://www.w3.org/2000/svg">
<path d="M22 10C15.3827 10 10 15.3827 10 22C10 28.6173 15.3827 34 22 34C28.6173 34 34 28.6173 34 22C34 15.3827 28.6173 10 22 10ZM29.9356 15.5327C31.3635 17.2779 32.2288 19.499 32.249 21.9192C31.9115 21.8471 28.5221 21.1606 25.1125 21.5904C25.0404 21.4144 24.9683 21.2385 24.8933 21.0625C24.6798 20.5635 24.4519 20.0644 24.2125 19.5769C28 18.0279 29.7192 15.8269 29.9356 15.5327ZM22 11.7654C24.6048 11.7654 26.9846 12.7433 28.7933 14.3471C28.6087 14.6096 27.0654 16.6837 23.4221 18.051C21.7433 14.9644 19.8827 12.4317 19.5971 12.051C20.3846 11.8606 21.1894 11.7654 22 11.7654ZM17.6413 12.7404C17.9125 13.1096 19.7442 15.651 21.4404 18.6683C16.6462 19.9404 12.4231 19.9231 11.9644 19.9173C12.6308 16.7356 14.774 14.0933 17.6413 12.7404ZM11.751 22.0144C11.751 21.9106 11.7538 21.8038 11.7567 21.7C12.2038 21.7087 17.1712 21.7721 22.2913 20.2404C22.5856 20.8144 22.8654 21.3971 23.1221 21.9798C22.9865 22.0173 22.851 22.0577 22.7183 22.101C17.4308 23.8144 14.6183 28.4731 14.3846 28.8683C12.749 27.051 11.751 24.6481 11.751 22.0144ZM22 32.2635C19.6288 32.2635 17.4452 31.4558 15.7087 30.1C15.8933 29.7221 17.9673 25.7154 23.7481 23.699L23.8144 23.676C25.2538 27.4144 25.8481 30.55 26.001 31.45C24.7365 31.9904 23.3751 32.2672 22 32.2635ZM27.726 30.5125C27.6221 29.8894 27.0769 26.8894 25.7356 23.2058C28.949 22.6923 31.7702 23.5346 32.1192 23.6442C31.6635 26.4942 30.0279 28.9577 27.726 30.5125Z" fill="black"/>
</svg>
