<svg width="27" height="34" viewBox="0 0 27 34" fill="none" xmlns="http://www.w3.org/2000/svg">
<path d="M13.64 19.886L11.764 21.244L11.666 20.95H15.782V22H10.602V20.95C11.2087 20.4927 11.7453 20.1053 12.212 19.788C12.688 19.4707 13.0893 19.186 13.416 18.934C13.7427 18.682 13.99 18.4253 14.158 18.164C14.3353 17.9027 14.424 17.5993 14.424 17.254C14.424 16.9927 14.3727 16.764 14.27 16.568C14.1673 16.3627 14.0087 16.204 13.794 16.092C13.5887 15.9707 13.318 15.91 12.982 15.91C12.5713 15.91 12.2167 16.0407 11.918 16.302C11.6193 16.5633 11.47 16.904 11.47 17.324H10.49C10.4433 16.8573 10.5273 16.442 10.742 16.078C10.966 15.7047 11.274 15.4107 11.666 15.196C12.0673 14.972 12.506 14.86 12.982 14.86C13.3927 14.86 13.7567 14.9253 14.074 15.056C14.3913 15.1773 14.6573 15.3453 14.872 15.56C15.096 15.7747 15.264 16.022 15.376 16.302C15.488 16.582 15.544 16.876 15.544 17.184C15.544 17.464 15.4973 17.7207 15.404 17.954C15.32 18.1873 15.194 18.4113 15.026 18.626C14.8673 18.8407 14.6713 19.0507 14.438 19.256C14.2047 19.4613 13.9387 19.6713 13.64 19.886Z" fill="#FD9575"/>
</svg>
