<svg width="28" height="34" viewBox="0 0 28 34" fill="none" xmlns="http://www.w3.org/2000/svg">
<path d="M14.088 18.22C14.4987 18.22 14.872 18.29 15.208 18.43C15.544 18.57 15.8333 18.7753 16.076 19.046C16.3187 19.3073 16.5053 19.6247 16.636 19.998C16.776 20.362 16.846 20.7773 16.846 21.244C16.846 21.86 16.7107 22.392 16.44 22.84C16.1787 23.288 15.824 23.6333 15.376 23.876C14.9373 24.1187 14.452 24.24 13.92 24.24C13.5187 24.24 13.136 24.1747 12.772 24.044C12.408 23.9227 12.086 23.7407 11.806 23.498C11.5353 23.2647 11.3113 22.9753 11.134 22.63C10.966 22.294 10.868 21.9113 10.84 21.482H11.96C11.9973 21.8367 12.0953 22.14 12.254 22.392C12.422 22.644 12.646 22.8307 12.926 22.952C13.206 23.0827 13.5373 23.148 13.92 23.148C14.1627 23.148 14.3913 23.106 14.606 23.022C14.83 22.938 15.026 22.8167 15.194 22.658C15.362 22.4993 15.4927 22.2987 15.586 22.056C15.6887 21.8227 15.74 21.552 15.74 21.244C15.74 20.936 15.6933 20.6653 15.6 20.432C15.516 20.1893 15.3947 19.9887 15.236 19.83C15.0867 19.662 14.9047 19.536 14.69 19.452C14.4753 19.3587 14.242 19.312 13.99 19.312C13.7567 19.312 13.5233 19.3447 13.29 19.41C13.0567 19.4753 12.842 19.592 12.646 19.76C12.45 19.928 12.282 20.166 12.142 20.474L11.106 20.264L11.386 15H16.132V16.05H12.45L12.212 19.998L12.114 19.9C12.2073 19.4987 12.352 19.1767 12.548 18.934C12.7533 18.6913 12.9867 18.514 13.248 18.402C13.5187 18.2807 13.7987 18.22 14.088 18.22Z" fill="#FD9575"/>
</svg>
