<svg width="27" height="34" viewBox="0 0 27 34" fill="none" xmlns="http://www.w3.org/2000/svg">
<path d="M13.374 19.34L13.388 19.27C13.7427 19.298 14.0693 19.3587 14.368 19.452C14.6667 19.5453 14.928 19.6853 15.152 19.872C15.376 20.0493 15.5487 20.2827 15.67 20.572C15.7913 20.8613 15.852 21.2113 15.852 21.622C15.852 22.098 15.74 22.532 15.516 22.924C15.292 23.3253 14.9747 23.6427 14.564 23.876C14.1627 24.1187 13.6913 24.24 13.15 24.24C12.646 24.24 12.184 24.1187 11.764 23.876C11.3533 23.6427 11.0313 23.3253 10.798 22.924C10.574 22.532 10.4853 22.098 10.532 21.622H11.512C11.512 21.9207 11.5773 22.1867 11.708 22.42C11.8387 22.6627 12.0253 22.854 12.268 22.994C12.5107 23.134 12.8047 23.204 13.15 23.204C13.6353 23.204 14.018 23.0547 14.298 22.756C14.5873 22.4573 14.732 22.0607 14.732 21.566C14.732 21.0713 14.5733 20.67 14.256 20.362C13.948 20.054 13.5233 19.9 12.982 19.9H12.184V18.864H12.982C13.3367 18.864 13.6353 18.8033 13.878 18.682C14.1207 18.5513 14.3027 18.3693 14.424 18.136C14.5453 17.9027 14.606 17.6367 14.606 17.338C14.606 16.918 14.48 16.5773 14.228 16.316C13.9853 16.0453 13.6167 15.91 13.122 15.91C12.7113 15.91 12.3613 16.0453 12.072 16.316C11.7827 16.5773 11.638 16.918 11.638 17.338H10.658C10.6207 16.9927 10.658 16.6707 10.77 16.372C10.8913 16.0733 11.0687 15.812 11.302 15.588C11.5353 15.3547 11.806 15.1773 12.114 15.056C12.4313 14.9253 12.7673 14.86 13.122 14.86C13.6447 14.86 14.102 14.972 14.494 15.196C14.886 15.4107 15.1893 15.7047 15.404 16.078C15.6187 16.4513 15.726 16.8713 15.726 17.338C15.726 17.7207 15.6653 18.0427 15.544 18.304C15.432 18.556 15.2687 18.7567 15.054 18.906C14.8487 19.0553 14.6013 19.1627 14.312 19.228C14.0227 19.2933 13.71 19.3307 13.374 19.34Z" fill="#FD9575"/>
</svg>
