<svg width="44" height="44" viewBox="0 0 44 44" fill="none" xmlns="http://www.w3.org/2000/svg">
<path d="M21.9968 15.843C18.5895 15.843 15.8397 18.5928 15.8397 22C15.8397 25.4073 18.5895 28.1571 21.9968 28.1571C25.404 28.1571 28.1538 25.4073 28.1538 22C28.1538 18.5928 25.404 15.843 21.9968 15.843ZM21.9968 26.0016C19.7933 26.0016 17.9951 24.2035 17.9951 22C17.9951 19.7966 19.7933 17.9984 21.9968 17.9984C24.2002 17.9984 25.9984 19.7966 25.9984 22C25.9984 24.2035 24.2002 26.0016 21.9968 26.0016ZM28.406 14.1559C27.6105 14.1559 26.968 14.7983 26.968 15.5938C26.968 16.3893 27.6105 17.0318 28.406 17.0318C29.2015 17.0318 29.8439 16.3923 29.8439 15.5938C29.8442 15.4049 29.8071 15.2178 29.735 15.0433C29.6628 14.8687 29.5569 14.7101 29.4233 14.5765C29.2897 14.4429 29.1311 14.337 28.9565 14.2648C28.782 14.1927 28.5949 14.1556 28.406 14.1559ZM33.9987 22C33.9987 20.3429 34.0137 18.7009 33.9206 17.0468C33.8275 15.1255 33.3893 13.4204 31.9843 12.0155C30.5764 10.6075 28.8743 10.1722 26.953 10.0792C25.2959 9.98613 23.6539 10.0011 21.9998 10.0011C20.3427 10.0011 18.7006 9.98613 17.0465 10.0792C15.1253 10.1722 13.4201 10.6105 12.0152 12.0155C10.6073 13.4234 10.172 15.1255 10.0789 17.0468C9.98588 18.7039 10.0009 20.3459 10.0009 22C10.0009 23.6541 9.98588 25.2992 10.0789 26.9533C10.172 28.8745 10.6103 30.5797 12.0152 31.9846C13.4231 33.3925 15.1253 33.8278 17.0465 33.9209C18.7036 34.0139 20.3457 33.9989 21.9998 33.9989C23.6569 33.9989 25.2989 34.0139 26.953 33.9209C28.8743 33.8278 30.5794 33.3895 31.9843 31.9846C33.3923 30.5767 33.8275 28.8745 33.9206 26.9533C34.0167 25.2992 33.9987 23.6571 33.9987 22ZM31.3569 29.0787C31.1378 29.625 30.8736 30.0333 30.4503 30.4536C30.0271 30.8769 29.6218 31.141 29.0754 31.3602C27.4964 31.9876 23.7469 31.8465 21.9968 31.8465C20.2466 31.8465 16.4942 31.9876 14.9151 31.3632C14.3688 31.144 13.9605 30.8799 13.5402 30.4566C13.1169 30.0333 12.8528 29.628 12.6336 29.0817C12.0092 27.4996 12.1503 23.7502 12.1503 22C12.1503 20.2499 12.0092 16.4974 12.6336 14.9184C12.8528 14.372 13.1169 13.9637 13.5402 13.5435C13.9635 13.1232 14.3688 12.856 14.9151 12.6369C16.4942 12.0125 20.2466 12.1536 21.9968 12.1536C23.7469 12.1536 27.4994 12.0125 29.0784 12.6369C29.6248 12.856 30.0331 13.1202 30.4533 13.5435C30.8766 13.9667 31.1408 14.372 31.3599 14.9184C31.9843 16.4974 31.8432 20.2499 31.8432 22C31.8432 23.7502 31.9843 27.4996 31.3569 29.0787Z" fill="black"/>
</svg>
