<svg width="44" height="44" viewBox="0 0 44 44" fill="none" xmlns="http://www.w3.org/2000/svg">
<path fill-rule="evenodd" clip-rule="evenodd" d="M18.9148 18.3628H23.3716V20.5828C24.0136 19.306 25.66 18.1588 28.1332 18.1588C32.8744 18.1588 34 20.7004 34 25.3636V34H29.2V26.4256C29.2 23.77 28.558 22.2724 26.9236 22.2724C24.6568 22.2724 23.7148 23.8864 23.7148 26.4244V34H18.9148V18.3628V18.3628ZM10.684 33.796H15.484V18.1588H10.684V33.796V33.796ZM16.1716 13.06C16.1718 13.4623 16.092 13.8607 15.9369 14.2319C15.7817 14.6031 15.5544 14.9398 15.268 15.2224C14.6877 15.7991 13.9022 16.122 13.084 16.12C12.2673 16.1195 11.4836 15.7974 10.9024 15.2236C10.6171 14.9401 10.3905 14.603 10.2356 14.2317C10.0808 13.8604 10.0007 13.4623 10 13.06C10 12.2476 10.324 11.47 10.9036 10.8964C11.4843 10.3218 12.2683 9.99964 13.0852 10C13.9036 10 14.6884 10.3228 15.268 10.8964C15.8464 11.47 16.1716 12.2476 16.1716 13.06Z" fill="black"/>
</svg>
